<mxfile host="app.diagrams.net" modified="2023-03-31T21:19:06.669Z" agent="5.0 (Windows)" etag="j7R_tAhJ8ODyPLiAwCsR" version="20.8.23" type="github" pages="3">
  <diagram id="fQzTnLMZr0oeQ_iGrPA_" name="lvl 0: Overview">
    <mxGraphModel dx="1017" dy="1104" grid="1" gridSize="10" guides="1" tooltips="1" connect="1" arrows="1" fold="1" page="1" pageScale="1" pageWidth="850" pageHeight="1100" math="0" shadow="0">
      <root>
        <mxCell id="0" />
        <mxCell id="1" parent="0" />
        <mxCell id="lvGuIVhpEG7LHq2Fy3bW-6" value="" style="edgeStyle=orthogonalEdgeStyle;rounded=0;orthogonalLoop=1;jettySize=auto;html=1;exitX=0.5;exitY=0;exitDx=0;exitDy=0;" parent="1" source="lvGuIVhpEG7LHq2Fy3bW-1" target="lvGuIVhpEG7LHq2Fy3bW-5" edge="1">
          <mxGeometry relative="1" as="geometry">
            <Array as="points">
              <mxPoint x="461" y="760" />
              <mxPoint x="195" y="760" />
            </Array>
          </mxGeometry>
        </mxCell>
        <mxCell id="c8yaSzMgPAG63DoacE5f-1" style="edgeStyle=orthogonalEdgeStyle;rounded=0;orthogonalLoop=1;jettySize=auto;html=1;entryX=0.5;entryY=1;entryDx=0;entryDy=0;" parent="1" source="lvGuIVhpEG7LHq2Fy3bW-1" target="c8yaSzMgPAG63DoacE5f-2" edge="1">
          <mxGeometry relative="1" as="geometry">
            <mxPoint x="625" y="700" as="targetPoint" />
          </mxGeometry>
        </mxCell>
        <mxCell id="lvGuIVhpEG7LHq2Fy3bW-1" value="&lt;b&gt;Rpi Controller&lt;/b&gt;" style="rounded=1;whiteSpace=wrap;html=1;" parent="1" vertex="1">
          <mxGeometry x="196" y="810" width="529" height="130" as="geometry" />
        </mxCell>
        <mxCell id="lvGuIVhpEG7LHq2Fy3bW-5" value="&lt;div&gt;&lt;b&gt;Android phone&lt;/b&gt;&lt;/div&gt;" style="rounded=1;whiteSpace=wrap;html=1;arcSize=33;" parent="1" vertex="1">
          <mxGeometry x="115" y="490" width="160" height="60" as="geometry" />
        </mxCell>
        <mxCell id="lvGuIVhpEG7LHq2Fy3bW-8" value="&lt;b&gt;Whatsapp Business&lt;/b&gt;" style="rounded=1;whiteSpace=wrap;html=1;" parent="1" vertex="1">
          <mxGeometry x="295" y="160" width="270" height="110" as="geometry" />
        </mxCell>
        <mxCell id="lvGuIVhpEG7LHq2Fy3bW-30" style="edgeStyle=orthogonalEdgeStyle;curved=1;orthogonalLoop=1;jettySize=auto;html=1;entryX=0.56;entryY=1.008;entryDx=0;entryDy=0;entryPerimeter=0;" parent="1" source="lvGuIVhpEG7LHq2Fy3bW-10" target="lvGuIVhpEG7LHq2Fy3bW-15" edge="1">
          <mxGeometry relative="1" as="geometry" />
        </mxCell>
        <mxCell id="lvGuIVhpEG7LHq2Fy3bW-10" value="&lt;b&gt;python:&lt;/b&gt;&lt;br&gt;1- will lauch adb shell script, &lt;br&gt;2- manipulate files,&lt;br&gt;3- utilize whatsapp API&lt;br&gt;4- utilize AI (chatbot)" style="rounded=1;whiteSpace=wrap;html=1;" parent="1" vertex="1">
          <mxGeometry x="602.5" y="400" width="145" height="130" as="geometry" />
        </mxCell>
        <mxCell id="lvGuIVhpEG7LHq2Fy3bW-34" style="edgeStyle=orthogonalEdgeStyle;curved=1;orthogonalLoop=1;jettySize=auto;html=1;entryX=0.5;entryY=1;entryDx=0;entryDy=0;" parent="1" source="lvGuIVhpEG7LHq2Fy3bW-15" target="lvGuIVhpEG7LHq2Fy3bW-8" edge="1">
          <mxGeometry relative="1" as="geometry" />
        </mxCell>
        <mxCell id="lvGuIVhpEG7LHq2Fy3bW-35" style="edgeStyle=orthogonalEdgeStyle;curved=1;orthogonalLoop=1;jettySize=auto;html=1;entryX=1;entryY=0.75;entryDx=0;entryDy=0;" parent="1" source="lvGuIVhpEG7LHq2Fy3bW-15" target="lvGuIVhpEG7LHq2Fy3bW-5" edge="1">
          <mxGeometry relative="1" as="geometry" />
        </mxCell>
        <mxCell id="lvGuIVhpEG7LHq2Fy3bW-15" value="&lt;b&gt;adb shell scripts:&lt;/b&gt;&lt;br&gt;-touch screen and navigate to create stories&lt;br&gt;- screenshot # views and chat" style="rounded=1;whiteSpace=wrap;html=1;arcSize=0;" parent="1" vertex="1">
          <mxGeometry x="355" y="420" width="150" height="120" as="geometry" />
        </mxCell>
        <mxCell id="c8yaSzMgPAG63DoacE5f-3" style="edgeStyle=orthogonalEdgeStyle;rounded=0;orthogonalLoop=1;jettySize=auto;html=1;" parent="1" source="c8yaSzMgPAG63DoacE5f-2" target="lvGuIVhpEG7LHq2Fy3bW-10" edge="1">
          <mxGeometry relative="1" as="geometry" />
        </mxCell>
        <mxCell id="c8yaSzMgPAG63DoacE5f-2" value="&lt;b&gt;Crontab:&lt;br&gt;launch python script every 30 mins&lt;br&gt;&lt;/b&gt;" style="rounded=1;whiteSpace=wrap;html=1;" parent="1" vertex="1">
          <mxGeometry x="615" y="610" width="120" height="100" as="geometry" />
        </mxCell>
        <mxCell id="c8yaSzMgPAG63DoacE5f-6" style="edgeStyle=orthogonalEdgeStyle;curved=1;orthogonalLoop=1;jettySize=auto;html=1;exitX=0.444;exitY=0.017;exitDx=0;exitDy=0;exitPerimeter=0;entryX=0;entryY=0.5;entryDx=0;entryDy=0;" parent="1" source="lvGuIVhpEG7LHq2Fy3bW-5" target="lvGuIVhpEG7LHq2Fy3bW-8" edge="1">
          <mxGeometry relative="1" as="geometry">
            <mxPoint x="225" y="410" as="sourcePoint" />
            <mxPoint x="30" y="300" as="targetPoint" />
          </mxGeometry>
        </mxCell>
        <mxCell id="c8yaSzMgPAG63DoacE5f-7" style="edgeStyle=orthogonalEdgeStyle;curved=1;orthogonalLoop=1;jettySize=auto;html=1;exitX=0.5;exitY=0;exitDx=0;exitDy=0;entryX=1;entryY=0.5;entryDx=0;entryDy=0;" parent="1" source="lvGuIVhpEG7LHq2Fy3bW-10" target="lvGuIVhpEG7LHq2Fy3bW-8" edge="1">
          <mxGeometry relative="1" as="geometry">
            <mxPoint x="509.99999999999994" y="321.02" as="sourcePoint" />
            <mxPoint x="753.96" y="100" as="targetPoint" />
          </mxGeometry>
        </mxCell>
      </root>
    </mxGraphModel>
  </diagram>
  <diagram id="JGDr9ynH4ZzEKs6SBJtl" name="lvl1: python modules">
    <mxGraphModel dx="712" dy="773" grid="1" gridSize="10" guides="1" tooltips="1" connect="1" arrows="1" fold="1" page="1" pageScale="1" pageWidth="850" pageHeight="1100" math="0" shadow="0">
      <root>
        <mxCell id="0" />
        <mxCell id="1" parent="0" />
        <mxCell id="fF7c1uwyaYMLfli1pp5V-1" value="adb_controller&lt;br&gt;- launch adb scripts" style="rounded=1;whiteSpace=wrap;html=1;" parent="1" vertex="1">
          <mxGeometry y="310" width="145" height="120" as="geometry" />
        </mxCell>
        <mxCell id="4CuNua832GrXlw8CGYYl-1" value="" style="edgeStyle=orthogonalEdgeStyle;rounded=0;orthogonalLoop=1;jettySize=auto;html=1;startArrow=none;" parent="1" source="4CuNua832GrXlw8CGYYl-2" target="fF7c1uwyaYMLfli1pp5V-1" edge="1">
          <mxGeometry relative="1" as="geometry" />
        </mxCell>
        <mxCell id="fF7c1uwyaYMLfli1pp5V-2" value="main&lt;br&gt;-push media to android&lt;br&gt;- delete media from android&lt;br&gt;- retreive media from ftp server&lt;br&gt;- put used media in separate folder" style="rounded=1;whiteSpace=wrap;html=1;" parent="1" vertex="1">
          <mxGeometry x="240" y="310" width="175" height="120" as="geometry" />
        </mxCell>
        <mxCell id="6palBcGFdfjY0Q5UdsOI-1" value="wha_api" style="rounded=1;whiteSpace=wrap;html=1;" parent="1" vertex="1">
          <mxGeometry x="510" y="320" width="150" height="110" as="geometry" />
        </mxCell>
        <mxCell id="6palBcGFdfjY0Q5UdsOI-2" value="wha_chatbot" style="rounded=1;whiteSpace=wrap;html=1;" parent="1" vertex="1">
          <mxGeometry x="700" y="320" width="150" height="110" as="geometry" />
        </mxCell>
        <mxCell id="6palBcGFdfjY0Q5UdsOI-4" style="edgeStyle=orthogonalEdgeStyle;rounded=0;orthogonalLoop=1;jettySize=auto;html=1;entryX=0.5;entryY=1;entryDx=0;entryDy=0;" parent="1" source="6palBcGFdfjY0Q5UdsOI-3" target="fF7c1uwyaYMLfli1pp5V-1" edge="1">
          <mxGeometry relative="1" as="geometry" />
        </mxCell>
        <mxCell id="6palBcGFdfjY0Q5UdsOI-5" style="edgeStyle=orthogonalEdgeStyle;rounded=0;orthogonalLoop=1;jettySize=auto;html=1;" parent="1" source="6palBcGFdfjY0Q5UdsOI-3" target="fF7c1uwyaYMLfli1pp5V-2" edge="1">
          <mxGeometry relative="1" as="geometry" />
        </mxCell>
        <mxCell id="6palBcGFdfjY0Q5UdsOI-6" style="edgeStyle=orthogonalEdgeStyle;rounded=0;orthogonalLoop=1;jettySize=auto;html=1;entryX=0.5;entryY=1;entryDx=0;entryDy=0;" parent="1" source="6palBcGFdfjY0Q5UdsOI-3" target="6palBcGFdfjY0Q5UdsOI-1" edge="1">
          <mxGeometry relative="1" as="geometry" />
        </mxCell>
        <mxCell id="6palBcGFdfjY0Q5UdsOI-7" style="edgeStyle=orthogonalEdgeStyle;rounded=0;orthogonalLoop=1;jettySize=auto;html=1;entryX=0.5;entryY=1;entryDx=0;entryDy=0;" parent="1" source="6palBcGFdfjY0Q5UdsOI-3" target="6palBcGFdfjY0Q5UdsOI-2" edge="1">
          <mxGeometry relative="1" as="geometry" />
        </mxCell>
        <mxCell id="6palBcGFdfjY0Q5UdsOI-3" value="Python" style="rounded=1;whiteSpace=wrap;html=1;" parent="1" vertex="1">
          <mxGeometry x="75" y="520" width="700" height="60" as="geometry" />
        </mxCell>
        <mxCell id="4CuNua832GrXlw8CGYYl-2" value="call" style="text;html=1;align=center;verticalAlign=middle;resizable=0;points=[];autosize=1;strokeColor=none;fillColor=none;" parent="1" vertex="1">
          <mxGeometry x="170" y="355" width="40" height="30" as="geometry" />
        </mxCell>
        <mxCell id="4CuNua832GrXlw8CGYYl-4" value="" style="edgeStyle=orthogonalEdgeStyle;rounded=0;orthogonalLoop=1;jettySize=auto;html=1;endArrow=none;" parent="1" source="fF7c1uwyaYMLfli1pp5V-2" target="4CuNua832GrXlw8CGYYl-2" edge="1">
          <mxGeometry relative="1" as="geometry">
            <mxPoint x="240" y="370" as="sourcePoint" />
            <mxPoint x="165" y="370" as="targetPoint" />
          </mxGeometry>
        </mxCell>
      </root>
    </mxGraphModel>
  </diagram>
  <diagram id="ckQndBuQ4Vw3okKZTqqU" name="lvl2: main.py Objects">
    <mxGraphModel dx="-769" dy="816" grid="1" gridSize="10" guides="1" tooltips="1" connect="1" arrows="1" fold="1" page="1" pageScale="1" pageWidth="850" pageHeight="1100" math="0" shadow="0">
      <root>
        <mxCell id="0" />
        <mxCell id="1" parent="0" />
        <mxCell id="VlSNu-U-qxhCqP0ixlTb-3" value="" style="edgeStyle=orthogonalEdgeStyle;rounded=0;orthogonalLoop=1;jettySize=auto;html=1;" edge="1" parent="1" source="bezERoTMW4D29uTn7quW-3" target="VlSNu-U-qxhCqP0ixlTb-2">
          <mxGeometry relative="1" as="geometry" />
        </mxCell>
        <mxCell id="ZY0uuAL3DrjzumEzWNTJ-2" style="edgeStyle=orthogonalEdgeStyle;rounded=0;orthogonalLoop=1;jettySize=auto;html=1;entryX=0.5;entryY=1;entryDx=0;entryDy=0;" edge="1" parent="1" source="bezERoTMW4D29uTn7quW-3" target="JFi5sYndogImHQWY956a-1">
          <mxGeometry relative="1" as="geometry" />
        </mxCell>
        <mxCell id="bezERoTMW4D29uTn7quW-3" value="main.py" style="rounded=1;whiteSpace=wrap;html=1;" vertex="1" parent="1">
          <mxGeometry x="2743" y="615" width="455" height="60" as="geometry" />
        </mxCell>
        <mxCell id="VlSNu-U-qxhCqP0ixlTb-2" value="content_updater:&lt;br&gt;- update_content()" style="rounded=1;whiteSpace=wrap;html=1;" vertex="1" parent="1">
          <mxGeometry x="2743" y="445" width="160" height="90" as="geometry" />
        </mxCell>
        <mxCell id="JFi5sYndogImHQWY956a-1" value="file_handler(adb_controller):&lt;br&gt;- push() #cp to android for adb to post and move to old/&amp;nbsp;&lt;br&gt;- clean() #deletes from phone&amp;nbsp;" style="rounded=1;whiteSpace=wrap;html=1;" vertex="1" parent="1">
          <mxGeometry x="3023" y="425" width="185" height="110" as="geometry" />
        </mxCell>
      </root>
    </mxGraphModel>
  </diagram>
</mxfile>
